ffmpeg started on 2016-11-26 at 20:04:44
Report written to "Output/NVENCh264/results/ffmpeg/crowd_run_2160p50ll11000k.log"
Command line:
Tools/ffmpeg/ffmpeg -benchmark -y -i Input/y4m/crowd_run_2160p50.y4m -c:v h264_nvenc -preset ll -b:v 11000k -an Output/NVENCh264/encoded/crowd_run_2160p50ll11000k.mkv
ffmpeg version N-82227-gdb23fde Copyright (c) 2000-2016 the FFmpeg developers
  built with gcc 5.4.0 (Ubuntu 5.4.0-6ubuntu1~16.04.2) 20160609
  configuration: --prefix=/home/jaroslav/ffmpeg_build --pkg-config-flags=--static --extra-cflags=-I/home/jaroslav/ffmpeg_build/include --extra-ldflags=-L/home/jaroslav/ffmpeg_build/lib --bindir=/home/jaroslav/bin --enable-gpl --enable-libass --enable-libfdk-aac --enable-libfreetype --enable-libmp3lame --enable-libopus --enable-libtheora --enable-libvorbis --enable-libvpx --enable-libx264 --enable-libx265 --enable-nvenc --enable-libmfx --enable-libxvid --enable-libgsm --enable-libopencore-amrnb --enable-version3 --enable-nonfree
  libavutil      55. 35.100 / 55. 35.100
  libavcodec     57. 66.101 / 57. 66.101
  libavformat    57. 57.100 / 57. 57.100
  libavdevice    57.  2.100 / 57.  2.100
  libavfilter     6. 66.100 /  6. 66.100
  libswscale      4.  3.100 /  4.  3.100
  libswresample   2.  4.100 /  2.  4.100
  libpostproc    54.  2.100 / 54.  2.100
Input #0, yuv4mpegpipe, from 'Input/y4m/crowd_run_2160p50.y4m':
  Duration: 00:00:10.00, start: 0.000000, bitrate: 4976642 kb/s
    Stream #0:0: Video: rawvideo (I420 / 0x30323449), yuv420p(progressive), 3840x2160, SAR 1:1 DAR 16:9, 50 fps, 50 tbr, 50 tbn, 50 tbc
[h264_nvenc @ 0x32ff1c0] The variable bitrate rate-control requires the 'qmin' and/or 'qmax' option set.
Output #0, matroska, to 'Output/NVENCh264/encoded/crowd_run_2160p50ll11000k.mkv':
  Metadata:
    encoder         : Lavf57.57.100
    Stream #0:0: Video: h264 (h264_nvenc) (Main) (H264 / 0x34363248), yuv420p, 3840x2160 [SAR 1:1 DAR 16:9], q=-1--1, 11000 kb/s, 50 fps, 1k tbn, 50 tbc
    Metadata:
      encoder         : Lavc57.66.101 h264_nvenc
    Side data:
      cpb: bitrate max/min/avg: 0/0/11000000 buffer size: 22000000 vbv_delay: -1
Stream mapping:
  Stream #0:0 -> #0:0 (rawvideo (native) -> h264 (h264_nvenc))
Press [q] to stop, [?] for help
frame=    9 fps=0.0 q=0.0 size=       0kB time=00:00:00.00 bitrate=N/A speed=   0x    frame=   20 fps= 18 q=0.0 size=       0kB time=00:00:00.00 bitrate=N/A speed=   0x    frame=   32 fps= 19 q=44.0 size=       1kB time=00:00:00.02 bitrate= 285.0kbits/s speed=0.0125x    frame=   49 fps= 22 q=43.0 size=       1kB time=00:00:00.36 bitrate=  16.6kbits/s speed=0.165x    frame=   67 fps= 25 q=43.0 size=       1kB time=00:00:00.72 bitrate=   8.3kbits/s speed=0.266x    frame=   84 fps= 17 q=43.0 size=       1kB time=00:00:01.06 bitrate=   5.6kbits/s speed=0.215x    frame=   85 fps= 10 q=43.0 size=       1kB time=00:00:01.08 bitrate=   5.5kbits/s speed=0.127x    frame=   86 fps=6.9 q=43.0 size=       1kB time=00:00:01.10 bitrate=   5.4kbits/s speed=0.0885x    frame=  103 fps=7.9 q=42.0 size=       1kB time=00:00:01.44 bitrate=   4.2kbits/s speed=0.111x    frame=  121 fps=9.0 q=42.0 size=       1kB time=00:00:01.80 bitrate=   3.3kbits/s speed=0.133x    frame=  139 fps=9.9 q=42.0 size=       1kB time=00:00:02.16 bitrate=   2.8kbits/s speed=0.154x    frame=  156 fps= 11 q=43.0 size=       1kB time=00:00:02.50 bitrate=   2.4kbits/s speed=0.172x    frame=  168 fps= 11 q=42.0 size=       1kB time=00:00:02.74 bitrate=   2.2kbits/s speed=0.18x    frame=  185 fps= 12 q=43.0 size=       1kB time=00:00:03.08 bitrate=   1.9kbits/s speed=0.196x    frame=  202 fps= 12 q=42.0 size=       1kB time=00:00:03.42 bitrate=   1.7kbits/s speed=0.211x    frame=  219 fps= 13 q=43.0 size=       1kB time=00:00:03.76 bitrate=   1.6kbits/s speed=0.225x    frame=  234 fps= 14 q=42.0 size=    5128kB time=00:00:04.06 bitrate=10344.3kbits/s speed=0.236x    frame=  252 fps= 14 q=43.0 size=    5128kB time=00:00:04.42 bitrate=9501.9kbits/s speed=0.249x    frame=  270 fps= 15 q=42.0 size=    5128kB time=00:00:04.78 bitrate=8786.5kbits/s speed=0.261x    frame=  286 fps= 15 q=44.0 size=    6689kB time=00:00:05.10 bitrate=10742.5kbits/s speed=0.271x    frame=  298 fps= 15 q=43.0 size=    6689kB time=00:00:05.34 bitrate=10259.8kbits/s speed=0.276x    frame=  310 fps= 16 q=43.0 size=    6689kB time=00:00:05.58 bitrate=9818.6kbits/s speed=0.281x    frame=  328 fps= 16 q=42.0 size=    6689kB time=00:00:05.94 bitrate=9223.6kbits/s speed=0.292x    frame=  346 fps= 17 q=43.0 size=    6689kB time=00:00:06.30 bitrate=8696.6kbits/s speed=0.302x    frame=  364 fps= 17 q=42.0 size=    6689kB time=00:00:06.66 bitrate=8226.6kbits/s speed=0.311x    frame=  382 fps= 17 q=42.0 size=    6689kB time=00:00:07.02 bitrate=7804.8kbits/s speed=0.32x    frame=  395 fps= 17 q=42.0 size=    6689kB time=00:00:07.28 bitrate=7526.1kbits/s speed=0.322x    frame=  413 fps= 18 q=43.0 size=    6689kB time=00:00:07.64 bitrate=7171.5kbits/s speed=0.33x    frame=  431 fps= 18 q=42.0 size=    6689kB time=00:00:08.00 bitrate=6848.8kbits/s speed=0.338x    frame=  449 fps= 19 q=44.0 size=    6689kB time=00:00:08.36 bitrate=6553.9kbits/s speed=0.346x    frame=  467 fps= 19 q=42.0 size=    6689kB time=00:00:08.72 bitrate=6283.4kbits/s speed=0.353x    frame=  485 fps= 19 q=42.0 size=   11813kB time=00:00:09.08 bitrate=10656.1kbits/s speed=0.36x    frame=  500 fps= 19 q=42.0 Lsize=   13437kB time=00:00:09.98 bitrate=11028.4kbits/s speed=0.389x    
video:13432kB audio:0kB subtitle:0kB other streams:0kB global headers:0kB muxing overhead: 0.035429%
bench: utime=1.168s
bench: maxrss=1408656kB
